<?xml version="1.0"?>
<svg xmlns="http://www.w3.org/2000/svg" viewBox="0 0 360 360">
  <g>
    <path d="M119.63,75.3a178.82,178.82,0,0,0-.07-64.87A179.9,179.9,0,0,0,63.48,42.85,180.35,180.35,0,0,0,119.63,75.3" fill="#867ca5"/>
    <path d="M98.36,132.86a180.51,180.51,0,0,0,18.94-47A191.05,191.05,0,0,1,55.42,50.14,179.73,179.73,0,0,0,5.21,137,192.12,192.12,0,0,1,67,172.68a179.21,179.21,0,0,0,31.36-39.82" fill="#867ca5"/>
    <path d="M240.47,75.26a180.46,180.46,0,0,0,56-32.41,179.69,179.69,0,0,0-56-32.39,180.44,180.44,0,0,0-.06,64.8" fill="#867ca5"/>
    <path d="M3,212.33A181.25,181.25,0,0,0,58.9,180,181.83,181.83,0,0,0,3,147.66a178.69,178.69,0,0,0,0,64.67" fill="#867ca5"/>
    <path d="M240.47,284.73a180.21,180.21,0,0,0,.06,64.8,179.75,179.75,0,0,0,56-32.38,180.18,180.18,0,0,0-56-32.42" fill="#867ca5"/>
    <path d="M354.79,223A192.41,192.41,0,0,1,293,187.32a178.19,178.19,0,0,0-50.23,86.78,191.19,191.19,0,0,1,61.82,35.75A179.8,179.8,0,0,0,354.79,223" fill="#867ca5"/>
    <path d="M55.42,309.85a191,191,0,0,1,61.82-35.75,179.36,179.36,0,0,0-18.88-47A178.88,178.88,0,0,0,67,187.32,192.48,192.48,0,0,1,5.21,223a179.76,179.76,0,0,0,50.21,86.83" fill="#867ca5"/>
    <path d="M293,172.68A192.43,192.43,0,0,1,354.79,137a179.76,179.76,0,0,0-50.21-86.83,191.19,191.19,0,0,1-61.81,35.74A178.28,178.28,0,0,0,293,172.68" fill="#867ca5"/>
    <path d="M357.05,147.67A181.23,181.23,0,0,0,301.1,180a181.43,181.43,0,0,0,55.95,32.33,178.63,178.63,0,0,0,0-64.66" fill="#867ca5"/>
    <path d="M129.88,281.41a191.17,191.17,0,0,1-.06,71.45,179.9,179.9,0,0,0,100.36,0,191,191,0,0,1-.05-71.45,179.28,179.28,0,0,0-100.25,0" fill="#867ca5"/>
    <path d="M119.47,349.54a180,180,0,0,0,.06-64.81,180.46,180.46,0,0,0-56,32.41,179.72,179.72,0,0,0,56,32.4" fill="#867ca5"/>
    <path d="M230.12,78.58a191.12,191.12,0,0,1,.06-71.44,179.91,179.91,0,0,0-100.26,0,189.79,189.79,0,0,1,.06,71.5,179.58,179.58,0,0,0,50,7.12,179.51,179.51,0,0,0,50.12-7.15" fill="#867ca5"/>
    <path d="M252.29,138.27a189.93,189.93,0,0,1-19.83-49.12A190.51,190.51,0,0,1,180,96.53a190.36,190.36,0,0,1-52.38-7.36,192,192,0,0,1-19.91,49.1A190,190,0,0,1,75,180a189.49,189.49,0,0,1,32.73,41.73,190.26,190.26,0,0,1,19.84,49.11,190.11,190.11,0,0,1,104.91,0A189,189,0,0,1,285,180a190.26,190.26,0,0,1-32.73-41.73" fill="#0a3255"/>
  </g>
</svg>
